<svg xmlns="http://www.w3.org/2000/svg" viewBox="0 0 94 23"><g fill="#FFF" fill-rule="evenodd"><path d="M74.89 1.701l-4.594 7.06v7.941l3.156-1.641 2.565-3.561V6.77a3.696 3.696 0 0 1-1.635-3.074c0 1.282.65 2.411 1.635 3.074v13.355A2.868 2.868 0 0 0 78.878 23c1.58 0 2.861-1.287 2.861-2.875V3.56l-.002-.001.002.068c-.01-.732-.166-1.415-.545-1.984C80.534.65 79.337 0 78.061 0c-1.273 0-2.473.655-3.133 1.643l-.038.058zm-10.316 5.07V11.5l2.566 3.56 3.156 1.642v-7.94L65.695 1.69a2.838 2.838 0 0 0-.031-.048C65.004.65 63.807 0 62.53 0a3.687 3.687 0 0 0-3.675 3.558l-.003.002v16.565A2.868 2.868 0 0 0 61.713 23c1.58 0 2.86-1.287 2.86-2.875V6.77z"/><path d="M70.023 16.702c-2.106 0-3.814-1.716-3.814-3.833s1.708-3.833 3.814-3.833c2.107 0 3.815 1.716 3.815 3.833 0 .814-.228 1.57-.658 2.19a3.848 3.848 0 0 1-3.157 1.643zM91.14 0A2.86 2.86 0 0 1 94 2.86v17.28a2.86 2.86 0 1 1-5.722 0V2.86A2.86 2.86 0 0 1 91.14 0zM48.907 0a2.86 2.86 0 0 1 2.861 2.86v17.28a2.86 2.86 0 1 1-5.722 0V2.86A2.86 2.86 0 0 1 48.907 0zM30.243 8.629V0a3.935 3.935 0 0 1 3.635 2.464c.057.14.104.286.142.434l4.993 15.24.767 2.338c-.141 1.434-1.33 2.526-2.75 2.524h-.195a2.842 2.842 0 0 1-2.2-1.23c-.07-.1-.221-.41-.327-.738L30.243 8.629zm0 0L26.18 21.032a3.566 3.566 0 0 1-.326.739 2.842 2.842 0 0 1-2.2 1.229h-.197c-1.419.002-2.608-1.09-2.749-2.524l.767-2.339 4.993-15.239c.038-.148.085-.293.142-.434A3.935 3.935 0 0 1 30.243 0v8.629zM12.688 5.75v14.375A2.886 2.886 0 0 1 9.792 23a2.886 2.886 0 0 1-2.896-2.875V5.75h-4A2.886 2.886 0 0 1 0 2.875 2.886 2.886 0 0 1 2.896 0h13.791c1.6 0 2.896 1.287 2.896 2.875a2.886 2.886 0 0 1-2.896 2.875h-4z"/></g></svg>