<?xml version="1.0" encoding="UTF-8"?>
<!-- Generator: Adobe Illustrator 16.0.4, SVG Export Plug-In . SVG Version: 6.00 Build 0)  -->
<!DOCTYPE svg PUBLIC "-//W3C//DTD SVG 1.1//EN" "http://www.w3.org/Graphics/SVG/1.1/DTD/svg11.dtd">
<svg version="1.1" id="Шар_1" xmlns="http://www.w3.org/2000/svg" xmlns:xlink="http://www.w3.org/1999/xlink" x="0px" y="0px" width="160px" height="40px" viewBox="0 0 160 40" enable-background="new 0 0 160 40" xml:space="preserve">
<g>
	<path fill="#141529" d="M50.996,11.931c0.32,0.322,0.48,0.736,0.48,1.248v12.615c0,2.307-0.713,4.012-2.141,5.117   c-1.426,1.105-3.236,1.658-5.428,1.658c-0.568,0-1.348-0.096-2.34-0.283c-0.992-0.189-1.697-0.377-2.111-0.566   c-0.928-0.396-1.391-0.945-1.391-1.645c0-0.133,0.029-0.283,0.086-0.455c0.113-0.414,0.307-0.73,0.582-0.949   c0.273-0.217,0.57-0.324,0.893-0.324c0.189,0,0.369,0.027,0.539,0.084c0.074,0.018,0.543,0.193,1.402,0.525   c0.861,0.33,1.639,0.494,2.34,0.494c1.398,0,2.441-0.277,3.133-0.836c0.689-0.557,1.033-1.346,1.033-2.367v-1.359   c-0.414,0.586-1.043,1.113-1.885,1.586s-1.742,0.709-2.707,0.709c-1.322,0-2.527-0.336-3.615-1.006   c-1.086-0.67-1.941-1.602-2.564-2.793c-0.625-1.191-0.936-2.541-0.936-4.055c0-1.51,0.307-2.867,0.922-4.066   c0.613-1.201,1.455-2.137,2.521-2.807c1.068-0.672,2.254-1.008,3.559-1.008c0.965,0,1.861,0.199,2.693,0.596   c0.83,0.396,1.502,0.879,2.012,1.447v-0.312c0-0.492,0.16-0.902,0.482-1.234c0.322-0.33,0.727-0.496,1.219-0.496   S50.674,11.61,50.996,11.931z M47.012,22.718c0.803-0.898,1.205-2.025,1.205-3.389c0-1.359-0.402-2.494-1.205-3.4   c-0.803-0.908-1.838-1.361-3.104-1.361c-1.268,0-2.297,0.453-3.092,1.361c-0.793,0.906-1.189,2.041-1.189,3.4   c0,1.363,0.396,2.49,1.189,3.389c0.795,0.898,1.824,1.348,3.092,1.348C45.174,24.065,46.209,23.616,47.012,22.718z"/>
	<path fill="#141529" d="M67.551,11.931c0.322,0.322,0.482,0.736,0.482,1.248v11.992c0,0.492-0.16,0.902-0.482,1.232   c-0.32,0.332-0.729,0.496-1.219,0.496s-0.893-0.16-1.205-0.48c-0.311-0.322-0.477-0.729-0.496-1.221   c-0.473,0.549-1.109,1.018-1.912,1.402c-0.805,0.389-1.65,0.582-2.539,0.582c-1.303,0-2.484-0.336-3.543-1.006   s-1.895-1.602-2.508-2.793c-0.615-1.191-0.924-2.541-0.924-4.055c0-1.51,0.303-2.867,0.908-4.066   c0.605-1.201,1.432-2.137,2.48-2.807c1.049-0.672,2.207-1.008,3.473-1.008c0.908,0,1.758,0.166,2.553,0.496   c0.793,0.332,1.463,0.752,2.012,1.262v-0.027c0-0.492,0.16-0.902,0.482-1.234c0.32-0.33,0.729-0.496,1.219-0.496   S67.23,11.61,67.551,11.931z M63.611,22.718c0.773-0.898,1.162-2.025,1.162-3.389c0-1.359-0.389-2.494-1.162-3.4   c-0.775-0.908-1.777-1.361-3.006-1.361c-1.209,0-2.201,0.453-2.977,1.361c-0.775,0.906-1.162,2.041-1.162,3.4   c0,1.363,0.383,2.49,1.148,3.389s1.762,1.348,2.99,1.348S62.836,23.616,63.611,22.718z"/>
	<path fill="#141529" d="M83.965,12.228c0.322,0.332,0.482,0.742,0.482,1.234v12.049c0,2.457-0.662,4.248-1.984,5.371   c-1.322,1.125-3.09,1.688-5.301,1.688c-0.645,0-1.301-0.051-1.971-0.156c-0.672-0.104-1.215-0.24-1.631-0.41   c-0.926-0.396-1.389-0.945-1.389-1.645c0-0.133,0.027-0.283,0.086-0.453c0.113-0.416,0.307-0.732,0.58-0.949   c0.273-0.219,0.57-0.328,0.895-0.328c0.188,0,0.367,0.029,0.537,0.086c0.133,0.057,0.363,0.15,0.695,0.283   c0.33,0.133,0.68,0.24,1.049,0.326c0.367,0.086,0.75,0.127,1.148,0.127c1.342,0,2.328-0.287,2.961-0.863   c0.635-0.576,0.951-1.564,0.951-2.963v-0.283c-0.984,1.229-2.514,1.842-4.594,1.842c-0.982,0-1.852-0.23-2.607-0.693   s-1.342-1.105-1.758-1.928c-0.416-0.824-0.625-1.762-0.625-2.822v-8.277c0-0.492,0.162-0.902,0.482-1.234   c0.322-0.33,0.729-0.496,1.219-0.496c0.492,0,0.898,0.166,1.221,0.496c0.32,0.332,0.482,0.742,0.482,1.234v7.258   c0,1.191,0.258,2.045,0.777,2.564c0.521,0.521,1.281,0.781,2.283,0.781c0.982,0,1.744-0.289,2.283-0.865   c0.537-0.576,0.807-1.402,0.807-2.48v-7.258c0-0.492,0.16-0.902,0.482-1.234c0.322-0.33,0.727-0.496,1.219-0.496   S83.645,11.897,83.965,12.228z"/>
	<path fill="#141529" d="M86.998,23.696c0-0.492,0.246-0.908,0.738-1.248c0.264-0.17,0.539-0.256,0.82-0.256   c0.398,0,0.775,0.182,1.135,0.539c0.566,0.588,1.158,1.021,1.771,1.305c0.615,0.283,1.357,0.426,2.227,0.426   c1.475-0.057,2.211-0.615,2.211-1.674c0-0.547-0.25-0.963-0.752-1.246c-0.5-0.285-1.279-0.568-2.338-0.85   c-1.096-0.303-1.99-0.605-2.68-0.908s-1.285-0.762-1.785-1.375c-0.502-0.615-0.752-1.441-0.752-2.48   c0-0.908,0.26-1.697,0.779-2.367c0.521-0.672,1.201-1.191,2.041-1.561c0.842-0.367,1.734-0.553,2.68-0.553   c0.963,0,1.928,0.18,2.893,0.539c0.963,0.359,1.719,0.889,2.268,1.588c0.244,0.303,0.367,0.643,0.367,1.021   c0,0.434-0.178,0.793-0.537,1.076c-0.266,0.209-0.568,0.312-0.908,0.312c-0.416,0-0.756-0.133-1.02-0.396   c-0.34-0.416-0.781-0.748-1.318-0.992c-0.539-0.246-1.148-0.369-1.83-0.369c-1.436,0-2.154,0.52-2.154,1.559   c0,0.416,0.133,0.752,0.398,1.008c0.264,0.254,0.6,0.453,1.006,0.594c0.406,0.143,0.979,0.316,1.715,0.525   c1.021,0.283,1.871,0.576,2.553,0.879c0.68,0.303,1.256,0.764,1.729,1.389c0.471,0.623,0.709,1.445,0.709,2.467   c0,0.926-0.275,1.734-0.822,2.424c-0.549,0.689-1.252,1.215-2.113,1.574c-0.859,0.357-1.742,0.537-2.65,0.537   c-1.246,0-2.41-0.209-3.486-0.623c-1.078-0.416-1.955-1.086-2.637-2.014C87.084,24.319,86.998,24.036,86.998,23.696z"/>
</g>
<g>
	<path fill="#141529" d="M105.229,14.058v9.498c0,0.717,0.133,1.203,0.398,1.459c0.264,0.254,0.613,0.383,1.049,0.383   c0.113,0,0.254-0.023,0.426-0.07c0.168-0.049,0.301-0.07,0.395-0.07c0.172,0,0.318,0.07,0.441,0.211   c0.123,0.143,0.184,0.307,0.184,0.496c0,0.266-0.152,0.488-0.453,0.666c-0.303,0.18-0.662,0.27-1.078,0.27   c-0.51,0-0.963-0.047-1.361-0.143c-0.396-0.092-0.779-0.377-1.146-0.85c-0.369-0.473-0.553-1.229-0.553-2.268v-9.582h-2.07   c-0.227,0-0.42-0.076-0.582-0.229c-0.16-0.15-0.24-0.338-0.24-0.566c0-0.227,0.08-0.416,0.24-0.566   c0.162-0.15,0.355-0.227,0.582-0.227h2.07V9.323c0-0.246,0.08-0.449,0.24-0.611c0.16-0.16,0.363-0.24,0.609-0.24   s0.449,0.08,0.609,0.24c0.16,0.162,0.24,0.365,0.24,0.611v3.146h2.836c0.207,0,0.391,0.086,0.553,0.254   c0.16,0.17,0.24,0.359,0.24,0.568c0,0.227-0.074,0.41-0.227,0.553c-0.15,0.141-0.34,0.213-0.566,0.213H105.229z"/>
</g>
<g>
	<path fill="#141529" d="M120.113,12.3c0.303,0.15,0.453,0.377,0.453,0.68c0,0.266-0.076,0.477-0.227,0.639   c-0.152,0.16-0.332,0.24-0.539,0.24c-0.094,0-0.279-0.047-0.553-0.141c-0.273-0.096-0.533-0.143-0.779-0.143   c-0.699,0-1.395,0.27-2.084,0.809c-0.689,0.537-1.258,1.232-1.701,2.082c-0.443,0.852-0.666,1.711-0.666,2.582v7.002   c0,0.246-0.08,0.449-0.24,0.609c-0.162,0.16-0.365,0.24-0.609,0.24c-0.246,0-0.451-0.08-0.609-0.24   c-0.162-0.16-0.242-0.363-0.242-0.609V13.349c0-0.246,0.08-0.449,0.242-0.611c0.158-0.158,0.363-0.24,0.609-0.24   c0.244,0,0.447,0.082,0.609,0.24c0.16,0.162,0.24,0.365,0.24,0.611v2.494c0.436-1.076,1.092-1.969,1.971-2.678   s1.914-1.072,3.104-1.092C119.471,12.073,119.811,12.147,120.113,12.3z"/>
</g>
<g>
	<path fill="#141529" d="M135.092,12.399c0.16,0.16,0.242,0.363,0.242,0.609v12.502c0,1.492-0.295,2.768-0.879,3.826   c-0.586,1.059-1.398,1.863-2.439,2.41c-1.039,0.549-2.211,0.822-3.514,0.822c-0.795,0-1.537-0.084-2.227-0.256   c-0.689-0.168-1.262-0.395-1.715-0.68c-0.396-0.246-0.596-0.52-0.596-0.822c0-0.037,0.02-0.133,0.057-0.283   c0.057-0.189,0.15-0.33,0.283-0.426c0.133-0.094,0.275-0.141,0.426-0.141c0.113,0,0.227,0.027,0.34,0.084   c1.209,0.662,2.363,0.992,3.459,0.992c1.568,0,2.811-0.492,3.729-1.473c0.916-0.982,1.375-2.326,1.375-4.027v-0.992   c-0.473,0.795-1.152,1.434-2.041,1.914c-0.889,0.482-1.854,0.723-2.893,0.723c-1.645,0-2.893-0.49-3.742-1.473   s-1.275-2.316-1.275-3.998v-8.703c0-0.246,0.08-0.449,0.24-0.609c0.16-0.162,0.363-0.242,0.609-0.242s0.449,0.08,0.609,0.242   c0.162,0.16,0.242,0.363,0.242,0.609v8.447c0,1.361,0.297,2.391,0.893,3.09c0.596,0.701,1.527,1.049,2.793,1.049   c0.775,0,1.516-0.193,2.225-0.58s1.277-0.898,1.701-1.531c0.426-0.633,0.639-1.309,0.639-2.027v-8.447   c0-0.246,0.08-0.449,0.24-0.609c0.16-0.162,0.363-0.242,0.609-0.242S134.932,12.237,135.092,12.399z"/>
</g>
<g>
	<path fill="#141529" d="M138.271,23.979c0-0.246,0.123-0.434,0.369-0.566c0.113-0.113,0.266-0.17,0.453-0.17   c0.227,0,0.436,0.094,0.625,0.283c1.115,1.475,2.598,2.211,4.451,2.211c0.906,0,1.695-0.213,2.367-0.637   c0.67-0.426,1.006-1.045,1.006-1.857c0-0.795-0.312-1.389-0.936-1.787c-0.625-0.396-1.494-0.736-2.609-1.02   c-1.568-0.398-2.797-0.912-3.684-1.545c-0.891-0.635-1.334-1.564-1.334-2.793c0-0.775,0.217-1.469,0.652-2.084   c0.436-0.613,1.025-1.092,1.771-1.432c0.748-0.34,1.592-0.51,2.537-0.51c0.812,0,1.631,0.154,2.453,0.467s1.525,0.809,2.111,1.49   c0.172,0.131,0.256,0.32,0.256,0.566c0,0.227-0.096,0.424-0.283,0.596c-0.133,0.111-0.303,0.168-0.51,0.168   c-0.189,0-0.359-0.074-0.512-0.227c-0.453-0.51-0.992-0.896-1.615-1.162c-0.623-0.264-1.295-0.396-2.014-0.396   c-0.889,0-1.648,0.207-2.281,0.623s-0.949,1.041-0.949,1.871c0.037,0.758,0.381,1.332,1.033,1.73   c0.652,0.396,1.611,0.756,2.879,1.076c0.982,0.246,1.795,0.521,2.438,0.822c0.643,0.303,1.168,0.729,1.574,1.275   c0.406,0.549,0.609,1.277,0.609,2.184c0,1.229-0.492,2.207-1.475,2.936c-0.982,0.727-2.201,1.09-3.658,1.09   c-2.305,0-4.139-0.859-5.5-2.58C138.348,24.358,138.271,24.149,138.271,23.979z"/>
</g>
<g>
	<path fill="#141529" d="M156.371,14.058v9.498c0,0.717,0.133,1.203,0.396,1.459c0.266,0.254,0.615,0.383,1.051,0.383   c0.113,0,0.254-0.023,0.424-0.07c0.17-0.049,0.303-0.07,0.396-0.07c0.17,0,0.316,0.07,0.439,0.211   c0.123,0.143,0.186,0.307,0.186,0.496c0,0.266-0.152,0.488-0.455,0.666c-0.301,0.18-0.66,0.27-1.076,0.27   c-0.51,0-0.965-0.047-1.361-0.143c-0.396-0.092-0.779-0.377-1.148-0.85c-0.367-0.473-0.553-1.229-0.553-2.268v-9.582h-2.068   c-0.229,0-0.422-0.076-0.582-0.229c-0.16-0.15-0.24-0.338-0.24-0.566c0-0.227,0.08-0.416,0.24-0.566s0.354-0.227,0.582-0.227h2.068   V9.323c0-0.246,0.08-0.449,0.242-0.611c0.16-0.16,0.363-0.24,0.609-0.24c0.244,0,0.447,0.08,0.609,0.24   c0.16,0.162,0.24,0.365,0.24,0.611v3.146h2.836c0.207,0,0.391,0.086,0.553,0.254c0.16,0.17,0.24,0.359,0.24,0.568   c0,0.227-0.076,0.41-0.227,0.553c-0.15,0.141-0.34,0.213-0.566,0.213H156.371z"/>
</g>
<g>
	<path fill="#E52332" d="M4.838,5.505C2.193,5.733,0.096,7.917,0,10.595v8.68c1.473-0.859,3.115-1.391,4.838-1.539V5.505z"/>
	<path fill="#F18A38" d="M5.852,17.687c1.324,0,2.609,0.229,3.822,0.652V5.481H5.291c-0.152,0-0.303,0.012-0.453,0.023v12.23   C5.174,17.708,5.51,17.687,5.852,17.687z"/>
	<polygon fill="#F18A38" points="4.846,34.495 4.846,34.495 4.846,21.528  "/>
	<path fill="#F1E850" d="M12.818,20.021l1.695-1.695v-2.402h-0.602c-0.91,0-1.646-0.736-1.646-1.646   c0-0.908,0.736-1.646,1.646-1.646h0.602V5.481h-4.84v12.857C10.797,18.733,11.857,19.296,12.818,20.021z"/>
	<polygon fill="#1A8344" points="16.914,15.923 14.514,15.923 14.514,18.325  "/>
	<path fill="#1A8344" d="M19.264,21.267v-3.037l-4.117,4.119c2.666,3.553,3.025,8.291,1.092,12.17h3.113v-0.023V21.772   C19.299,21.612,19.264,21.444,19.264,21.267z"/>
	<rect x="14.514" y="5.481" fill="#1A8344" width="4.838" height="7.148"/>
	<path fill="#2D668E" d="M23.727,5.481h-4.375v7.148h1.477c0.139-0.006,0.277,0.004,0.414,0.035c0.004,0,0.008,0.002,0.014,0.004   c0.094,0.02,0.186,0.047,0.275,0.084c0.602,0.246,1.025,0.834,1.025,1.523v6.99c0,0.908-0.736,1.646-1.646,1.646   c-0.73,0-1.344-0.48-1.559-1.141v12.723l4.838,0.023v-0.023V5.507C24.035,5.491,23.883,5.481,23.727,5.481z M20.861,12.362   c0.006,0,0.012-0.004,0.018-0.004c0.01,0,0.021,0.004,0.031,0.004C20.895,12.362,20.877,12.362,20.861,12.362z M22.309,12.95   c0.002,0.002,0.002,0.002,0.004,0.004C22.311,12.952,22.311,12.952,22.309,12.95z M22.865,14.782   c0.025-0.129,0.039-0.262,0.041-0.396c0-0.002,0-0.002-0.002-0.002c0.002,0,0.002,0,0.002,0.002   C22.904,14.521,22.891,14.653,22.865,14.782z"/>
	<path fill="#6B2E86" d="M24.189,5.507v28.988c2.701-0.238,4.836-2.52,4.836-5.277V10.782C29.025,8.024,26.891,5.743,24.189,5.507z"/>
	<path fill="#E52332" d="M0,23.38v6.023c0.062,1.771,1.006,3.324,2.4,4.24c0.715,0.469,1.543,0.773,2.438,0.852V21.528v-0.48   C3.016,21.267,1.326,22.073,0,23.38z"/>
	<rect x="4.838" y="21.528" fill="#E52332" width="0.008" height="12.967"/>
	<path fill="#F18A38" d="M5.852,20.979c-0.342,0-0.678,0.027-1.014,0.068v0.48c0.004,0,0.006,0,0.008,0v12.967l4.828,0.023V22.501   v-0.59C8.508,21.304,7.205,20.979,5.852,20.979z"/>
	<rect x="9.673" y="22.503" fill="#F18A38" width="0.011" height="12.014"/>
	<path fill="#F1E850" d="M11.914,23.606c-0.066-0.049-0.135-0.098-0.195-0.16c-0.062-0.061-0.111-0.129-0.162-0.197   c-0.57-0.537-1.203-0.984-1.883-1.338v0.59c0.004,0,0.008,0.002,0.01,0.004v12.014h2.357h0.318   C14.924,31.313,14.773,26.644,11.914,23.606z"/>
	<path fill="#000729" d="M20.861,12.362c0.016,0,0.033,0,0.049,0c-0.01,0-0.021-0.004-0.031-0.004   C20.873,12.358,20.867,12.362,20.861,12.362z"/>
	<path fill="#FFFFFF" d="M21.531,12.753c-0.09-0.037-0.182-0.064-0.275-0.084c-0.006-0.002-0.01-0.004-0.014-0.004   c-0.137-0.031-0.275-0.041-0.414-0.035h-1.477h-4.838h-0.602c-0.91,0-1.646,0.738-1.646,1.646c0,0.91,0.736,1.646,1.646,1.646   h0.602h2.4l-2.4,2.402l-1.695,1.695c-0.961-0.725-2.021-1.287-3.145-1.682c-1.213-0.424-2.498-0.652-3.822-0.652   c-0.342,0-0.678,0.021-1.014,0.049C3.115,17.884,1.473,18.415,0,19.274v4.105c1.326-1.307,3.016-2.113,4.838-2.332   c0.336-0.041,0.672-0.068,1.014-0.068c1.354,0,2.656,0.324,3.822,0.932c0.68,0.354,1.312,0.801,1.883,1.338   c0.051,0.068,0.1,0.137,0.162,0.197c0.061,0.062,0.129,0.111,0.195,0.16c2.859,3.037,3.01,7.707,0.445,10.912h2.154h1.725   c1.934-3.879,1.574-8.617-1.092-12.17l4.117-4.119v3.037c0,0.178,0.035,0.346,0.088,0.506c0.215,0.66,0.828,1.141,1.559,1.141   c0.91,0,1.646-0.738,1.646-1.646v-6.99C22.557,13.587,22.133,12.999,21.531,12.753z"/>
</g>
</svg>