<svg xmlns="http://www.w3.org/2000/svg" width="160" height="40" viewBox="0 0 160 40">
  <path fill="#009FE3" d="M35.057 27.41c-1.954 0-3.644-.727-5.069-2.18a7.487 7.487 0 0 1-1.588-2.422c-.176-.447-.309-.904-.396-1.369s-.133-.961-.133-1.49c0-2.028.703-3.782 2.107-5.263 1.404-1.479 3.098-2.219 5.079-2.219.991 0 1.894.175 2.708.524a6.836 6.836 0 0 1 2.219 1.552L38.558 16a4.753 4.753 0 0 0-1.572-1.079 4.898 4.898 0 0 0-1.929-.377c-1.392 0-2.606.529-3.644 1.588a5.416 5.416 0 0 0-1.16 1.741 5.385 5.385 0 0 0-.388 2.065c0 1.466.515 2.732 1.542 3.798 1.028 1.063 2.248 1.598 3.66 1.598 1.316 0 2.469-.454 3.46-1.363a5.119 5.119 0 0 0 1.629-2.992h-6.301v-2.077h8.306l.021.203.052.834c0 2.118-.727 3.907-2.179 5.364-1.419 1.405-3.085 2.107-4.998 2.107M48.381 27.41c-1.433 0-2.66-.532-3.685-1.598a6.053 6.053 0 0 1-1.12-1.771 5.335 5.335 0 0 1-.387-2.025c0-1.41.509-2.663 1.526-3.756 1.019-1.093 2.24-1.639 3.665-1.639.835 0 1.649.214 2.442.641.794.429 1.395.974 1.803 1.64v5.446l1.404 1.454-1.283 1.405-1.018-1.049-.203.152-.214.174a9.79 9.79 0 0 1-1.181.601 5.097 5.097 0 0 1-1.749.325m2.269-3.084v-4.621a4 4 0 0 0-.989-.723 3.598 3.598 0 0 0-.632-.214 2.905 2.905 0 0 0-.653-.071c-.896 0-1.653.327-2.269.981a3.301 3.301 0 0 0-.923 2.337c0 .881.318 1.654.953 2.318.636.666 1.383.998 2.238.998.483 0 .914-.09 1.295-.271.381-.177.709-.421.98-.734M56.778 22.016c0 .924.312 1.707.934 2.354.624.646 1.376.967 2.256.967.488 0 .938-.104 1.352-.314l.447-.285c.129-.094.287-.229.478-.406V16.83h1.995v9.904c0 .828-.258 1.683-.773 2.563-.225.379-.462.725-.713 1.032s-.58.647-.987 1.021l-1.435-1.399c.705-.616 1.221-1.201 1.547-1.757a2.93 2.93 0 0 0 .279-.654c.058-.206.087-.432.087-.676-.285.162-.63.297-1.033.396a5.02 5.02 0 0 1-1.237.152c-1.418 0-2.638-.527-3.658-1.583-1.021-1.056-1.532-2.325-1.532-3.812v-5.191h1.995v5.191h-.002v-.001zM65.908 19.837a5.128 5.128 0 0 1 1.873-2.32c.44-.299.89-.522 1.349-.672a4.726 4.726 0 0 1 1.471-.225c.251 0 .472.011.662.031.189.021.383.058.58.111.196.041.39.101.58.179.189.078.387.175.59.29a4.98 4.98 0 0 1 1.711 1.486l-1.628 1.221c-.259-.365-.614-.664-1.069-.895s-.931-.347-1.426-.347c-.441 0-.825.075-1.15.224-.177.076-.428.235-.754.48l6.183 4.708c-.38.951-1.021 1.738-1.92 2.363s-1.886.938-2.958.938c-.4 0-.783-.042-1.146-.127s-.711-.226-1.043-.423a4.53 4.53 0 0 1-.825-.521 5.707 5.707 0 0 1-.773-.753l1.507-1.385.264.273.184.152.479.346c.435.237.886.356 1.354.356.326 0 .689-.052 1.09-.153.184-.054.352-.119.504-.197.152-.078.294-.174.422-.291l-6.111-4.849z"/>
  <path fill="#012933" d="M82.988 27.41c-1.954 0-3.646-.727-5.069-2.18a7.487 7.487 0 0 1-1.588-2.422c-.177-.447-.309-.904-.396-1.369s-.133-.961-.133-1.49c0-2.028.702-3.782 2.107-5.263 1.404-1.479 3.098-2.219 5.079-2.219.99 0 1.893.175 2.707.524a6.826 6.826 0 0 1 2.219 1.552L86.488 16c-.453-.468-.979-.828-1.571-1.079s-1.237-.377-1.929-.377c-1.393 0-2.606.529-3.646 1.588a5.432 5.432 0 0 0-1.16 1.741 5.403 5.403 0 0 0-.387 2.065c0 1.466.515 2.732 1.542 3.798 1.028 1.063 2.248 1.598 3.659 1.598 1.314 0 2.471-.454 3.461-1.363.891-.82 1.434-1.818 1.629-2.992h-6.301v-2.077h8.306l.021.203.052.834c0 2.118-.728 3.907-2.179 5.364-1.419 1.405-3.085 2.107-4.997 2.107M96.323 16.62c1.391 0 2.604.533 3.644 1.599.516.529.902 1.11 1.16 1.74.258.632.387 1.32.387 2.066 0 1.459-.509 2.722-1.525 3.787-1.02 1.063-2.239 1.598-3.663 1.598-1.427 0-2.648-.525-3.671-1.577-1.021-1.054-1.531-2.321-1.531-3.808 0-1.452.509-2.716 1.525-3.792 1.017-1.074 2.242-1.613 3.674-1.613m3.175 5.405c0-.924-.313-1.708-.938-2.356-.623-.647-1.369-.972-2.237-.972-.869 0-1.617.327-2.245.982a3.27 3.27 0 0 0-.941 2.346c0 .89.307 1.662.916 2.32.61.657 1.367.986 2.271.986.867 0 1.613-.327 2.238-.98a3.247 3.247 0 0 0 .936-2.326"/>
  <path fill="#EC6446" d="M103.061 27.207V12.671h5.008c1.929 0 3.57.709 4.929 2.127 1.356 1.42 2.036 3.137 2.036 5.151 0 1.994-.672 3.703-2.012 5.125-1.342 1.422-2.994 2.133-4.963 2.133h-4.998zm1.996-12.459V25.13h3.012c1.38 0 2.556-.507 3.527-1.521.973-1.014 1.461-2.237 1.461-3.67 0-1.424-.486-2.646-1.461-3.664-.974-1.018-2.147-1.526-3.527-1.526l-3.012-.001zM121.199 27.41c-1.434 0-2.66-.532-3.686-1.598a6.05 6.05 0 0 1-1.119-1.771 5.31 5.31 0 0 1-.389-2.025c0-1.41.51-2.663 1.527-3.756 1.018-1.093 2.238-1.639 3.664-1.639.834 0 1.648.214 2.441.641.793.429 1.396.974 1.801 1.64v5.446l1.406 1.454-1.283 1.405-1.019-1.049-.204.152-.213.174c-.307.188-.699.39-1.182.601a5.031 5.031 0 0 1-1.744.325m2.27-3.084v-4.621a3.995 3.995 0 0 0-.988-.723c-.219-.095-.43-.167-.633-.214s-.422-.071-.652-.071c-.896 0-1.652.327-2.27.981a3.301 3.301 0 0 0-.923 2.337c0 .881.317 1.654.953 2.318.636.666 1.382.998 2.237.998.482 0 .916-.09 1.296-.271.382-.175.708-.421.98-.734M130.98 16.824h1.997v2.077h-1.997v8.306h-1.996v-8.306h-1.994v-2.077h1.994v-4.153h1.996zM134.023 16.825h2.992v10.382h-1.994v-8.306h-.998v-2.076zm.998-4.154h1.994v2.076h-1.994v-2.076zM147.083 22.32c0-1.133-.2-1.995-.601-2.585-.461-.692-1.19-1.038-2.188-1.038-.476 0-.905.095-1.292.285-.285.143-.588.384-.906.723v7.502h-1.994v-7.502l-1.406-1.476 1.283-1.404 1.101 1.129.347-.336.458-.346.257-.143.336-.163a5.123 5.123 0 0 1 1.819-.346c1.603 0 2.823.536 3.665 1.608.73.93 1.1 2.137 1.1 3.624v5.354h-1.976l-.003-4.886zM160 26.729c0 .891-.167 1.726-.501 2.508a6.328 6.328 0 0 1-1.483 2.109l-1.426-1.4c.219-.188.411-.401.58-.639.184-.236.337-.488.458-.752.251-.574.377-1.127.377-1.654-.251.149-.587.271-1.008.367-.42.097-.828.144-1.222.144-1.438 0-2.664-.525-3.674-1.577-1.014-1.055-1.519-2.324-1.519-3.816 0-1.479.517-2.75 1.547-3.809 1.031-1.059 2.246-1.588 3.646-1.588.869 0 1.703.217 2.504.651A4.58 4.58 0 0 1 160 18.901v7.828zm-1.995-2.406v-4.636c-.196-.272-.521-.514-.967-.726a3.495 3.495 0 0 0-.621-.214l-.306-.051h-.346c-.854 0-1.602.327-2.234.982a3.238 3.238 0 0 0-.951 2.335c0 .896.311 1.674.932 2.332.62.656 1.372.985 2.254.985.522 0 .979-.097 1.364-.286.326-.159.617-.401.875-.721"/>
  <path fill="#224449" d="M5.423 10.481c0 1.01.817 1.828 1.827 1.828V8.653c-1.01 0-1.827.819-1.827 1.828M4.813 12.919L0 17.719l1.292 1.292 3.521-3.521v12.66h1.828v-7.311h.609v-7.92z"/>
  <path fill="#012933" d="M20.044 10.481c0-1.01-.818-1.828-1.828-1.828v3.656a1.827 1.827 0 0 0 1.828-1.828M20.653 12.919h-2.437v7.92h.609v7.311h1.828V15.49l3.521 3.521 1.292-1.292zM9.077 10.481c0-1.01-.817-1.828-1.827-1.828v3.656a1.826 1.826 0 0 0 1.827-1.828M12.731 15.954l-3.044-3.035H7.25v7.92h.609v7.309h1.828V15.491l3.046 3.045v-2.584z"/>
  <path fill="#224449" d="M18.216 8.653a1.827 1.827 0 0 0 0 3.656V8.653zM12.733 15.952v2.584l3.046-3.045V28.15h1.828v-7.311h.609v-7.92h-2.437z"/>
  <linearGradient id="a" gradientUnits="userSpaceOnUse" x1="363.991" y1="-243.435" x2="373.389" y2="-243.435" gradientTransform="matrix(1 0 0 -1 -355.96 -236.66)">
    <stop offset="0" stop-color="#ff0001"/>
    <stop offset=".2" stop-color="#ffa800"/>
    <stop offset=".4" stop-color="#fff100"/>
    <stop offset=".6" stop-color="#38e900"/>
    <stop offset=".8" stop-color="#2015ff"/>
    <stop offset="1" stop-color="#c0f"/>
  </linearGradient>
  <path fill="url(#a)" d="M8.031 5.11c0 .555.031.807.234 1.33.159.407.423.866.68 1.216.155.211.241.331.414.531l.214.258.551.565c.027.029.045.049.075.076l.589.525c.355.298 1.574 1.242 1.942 1.242.397 0 1.69-1.025 2.093-1.373.064-.055.107-.097.173-.148l.943-.946.292-.352c.155-.183.402-.531.529-.738.3-.491.668-1.253.668-1.88 0-.513-.02-.816-.242-1.283a2.635 2.635 0 0 0-.669-.864c-.057-.048-.111-.084-.174-.127a2.44 2.44 0 0 0-3.236.384c-.104.116-.328.412-.359.551h-.037c-.024-.105-.172-.324-.248-.415-.924-1.116-2.383-1.283-3.5-.409-.037.029-.043.039-.079.072-.04.039-.053.041-.093.077-.06.054-.223.255-.278.326a2.487 2.487 0 0 0-.234.393c-.116.242-.248.639-.248.989z"/>
</svg>
