<svg xmlns="http://www.w3.org/2000/svg" width="148" height="40" viewBox="0 0 148 40">
  <path fill="#333" d="M6.245 29.011c1.904 0 3.372-.456 4.399-1.364 1.028-.91 1.543-2.25 1.543-4.02 0-1.042-.252-1.952-.756-2.73-.503-.777-1.271-1.272-2.304-1.484.771-.33 1.353-.836 1.745-1.517.395-.682.591-1.458.591-2.331 0-1.676-.538-2.935-1.612-3.778-1.075-.842-2.578-1.263-4.508-1.263H.048v18.488h6.197zm-.013-8.191h.127c.771.026 1.337.28 1.701.762.365.482.547 1.164.547 2.045 0 .854-.199 1.5-.598 1.936-.397.437-.986.654-1.765.654H3.629V20.82h2.603zm-2.603-7.491h1.714c.846 0 1.481.207 1.904.622s.635 1.063.635 1.943c0 .787-.203 1.388-.609 1.803-.406.415-.995.631-1.765.647H3.629v-5.015zM23.218 10.523v12.075c0 1.271-.26 2.235-.78 2.896-.52.66-1.242.99-2.165.99-.906 0-1.621-.332-2.146-.996-.524-.665-.787-1.627-.787-2.891V10.523h-3.568v12.075c0 2.092.603 3.728 1.804 4.907 1.202 1.183 2.768 1.772 4.698 1.772 1.938 0 3.511-.59 4.717-1.767 1.207-1.176 1.81-2.813 1.81-4.913V10.523h-3.583zM34.555 29.011c1.93 0 3.525-.719 4.787-2.153 1.261-1.434 1.892-3.284 1.892-5.555v-3.06c0-2.26-.631-4.112-1.892-5.555-1.262-1.443-2.857-2.165-4.787-2.165h-5.701v18.488h5.701zm0-15.682c.922 0 1.667.457 2.234 1.371s.852 2.086.852 3.517v3.085c0 1.447-.284 2.63-.852 3.544-.568.913-1.313 1.37-2.234 1.37h-2.12V13.329h2.12zM48.798 29.011c1.931 0 3.526-.719 4.787-2.153 1.262-1.434 1.893-3.284 1.893-5.555v-3.06c0-2.26-.631-4.112-1.893-5.555-1.261-1.443-2.856-2.165-4.787-2.165h-5.701v18.488h5.701zm0-15.682c.924 0 1.668.457 2.235 1.371.567.914.851 2.086.851 3.517v3.085c0 1.447-.283 2.63-.851 3.544-.568.913-1.312 1.37-2.235 1.37h-2.12V13.329h2.12zM59.399 10.523h-3.91l5.295 11.668v6.818h3.567v-6.59l5.396-11.897h-3.911l-3.187 8.038h-.076l-3.174-8.037zM106.943 19.623h-6.398V22.1h2.818v3.732c-.213.271-.518.488-.914.654-.398.164-.944.246-1.639.246-.974 0-1.724-.32-2.248-.965-.523-.644-.787-1.625-.787-2.945v-5.637c0-1.295.259-2.264.774-2.908.517-.644 1.236-.965 2.159-.965.854 0 1.494.221 1.917.66.423.44.635 1.143.635 2.108h3.365l.024-.076c.033-1.761-.461-3.117-1.485-4.07-1.024-.951-2.544-1.428-4.558-1.428-1.932 0-3.481.584-4.654 1.752-1.172 1.168-1.758 2.819-1.758 4.952v5.612c0 2.143.603 3.795 1.81 4.959 1.205 1.164 2.808 1.746 4.806 1.746 1.574 0 2.858-.268 3.854-.801.995-.533 1.755-1.168 2.278-1.904v-7.199zM118.128 29.261h3.745l-5.244-18.488h-3.707l-5.244 18.488h3.733l1.041-4h4.622l1.054 4zm-3.403-12.685h.076l1.536 5.865h-3.147l1.535-5.865zM124.119 10.773h-3.911l5.295 11.668v6.818h3.567v-6.59l5.396-11.897h-3.91l-3.188 8.038h-.076l-3.173-8.037zM142.725 26.148c-.386.425-.963.636-1.732.636-.915 0-1.605-.255-2.076-.763s-.705-1.34-.705-2.5h-3.49l-.025.076c-.043 1.996.559 3.484 1.803 4.463 1.244.978 2.742 1.467 4.495 1.467 1.776 0 3.202-.453 4.278-1.359 1.076-.904 1.612-2.148 1.612-3.732 0-1.531-.459-2.75-1.378-3.656-.919-.905-2.271-1.654-4.057-2.248-1.051-.482-1.791-.927-2.223-1.333-.433-.406-.647-.922-.647-1.549 0-.677.19-1.242.571-1.695.381-.452.914-.679 1.601-.679.796 0 1.407.248 1.835.743s.641 1.221.641 2.177h3.479l.024-.076c.035-1.71-.494-3.073-1.588-4.089-1.092-1.016-2.535-1.523-4.328-1.523-1.693 0-3.086.477-4.178 1.428-1.093.954-1.639 2.187-1.639 3.702 0 1.524.479 2.708 1.436 3.556.955.847 2.383 1.604 4.278 2.272.974.406 1.647.823 2.024 1.251.377.429.564 1.011.564 1.746.002.7-.191 1.264-.575 1.685z"/>
  <path fill="#34E404" d="M72.651 23.884c.382-1.356.961-2.13 1.953-3.196.004.008.004.019.008.027a9.365 9.365 0 0 1 1.309-1.173c.082-.062.162-.111.242-.166a9.56 9.56 0 0 1 9.094-.924 4.579 4.579 0 0 1-.779 2.938c-.029.043-.049.092-.08.133a6.318 6.318 0 0 0-3.621-.623 6.197 6.197 0 0 0-3.271 1.428c-.002-.004-.004-.005-.004-.008a1.275 1.275 0 0 0-.036.035 6.189 6.189 0 0 0-.848.893l-.001-.001a6.147 6.147 0 0 0-1.136 5.192 6.186 6.186 0 0 0 2.274 3.504c2.739 2.096 6.685 1.604 8.792-1.094a6.086 6.086 0 0 0 1.301-3.848l.004-.005a6.16 6.16 0 0 0-.054-.724 6.169 6.169 0 0 0-.269-1.131c.795-1.002 1.49-1.922 1.949-3.192.342.518.629 1.062.856 1.625.024.053.051.1.069.151a9.257 9.257 0 0 1-.284 7.328c-.052.108-.095.219-.147.326l3.317 2.542-.231-1.772-.248-1.907a.106.106 0 0 1 .09-.119l2.947-.36a.108.108 0 0 1 .121.088l.465 3.564.699 5.35a.1.1 0 0 1-.092.115l-4.656.58-4.326.538a.11.11 0 0 1-.121-.089l-.289-2.219-.092-.7a.101.101 0 0 1 .09-.114l3.697-.454-3.295-2.526a9.372 9.372 0 0 1-4.429 2.293 9.536 9.536 0 0 1-7.81-1.752 9.232 9.232 0 0 1-1.821-1.854 9.314 9.314 0 0 1-1.821-6.381c.008-.115.014-.227.03-.339.055-.468.168-.935.299-1.394.056-.185.101-.373.166-.556 0-.011-.005-.018-.011-.029"/>
  <path fill="#D57BE3" d="M87.525 25.154a9.047 9.047 0 0 1-1.301 1.166 9.46 9.46 0 0 1-4.191 1.716 9.553 9.553 0 0 1-3.729-.158c-.016-.004-.027-.006-.043-.012a9.412 9.412 0 0 1-1.371-.455 4.754 4.754 0 0 1 .088-1.269 4.606 4.606 0 0 1 .772-1.809c.87.434 1.813.65 2.747.667l.006-.006a6.295 6.295 0 0 0 4.154-1.476c.313-.269.605-.569.869-.906.166-.215.311-.436.445-.663a6.106 6.106 0 0 0 .695-4.536 6.195 6.195 0 0 0-2.28-3.499c-.117-.089-.236-.169-.355-.25a6.313 6.313 0 0 0-2.67-.999 6.238 6.238 0 0 0-1.604-.01 6.226 6.226 0 0 0-4.159 2.344v.005a6.112 6.112 0 0 0-1.188 2.616 5.971 5.971 0 0 0-.06 1.957c.051.379.14.746.255 1.104-.993 1.066-1.569 1.84-1.954 3.198a9.349 9.349 0 0 1-.911-1.759 9.318 9.318 0 0 1-.343-5.629 9.193 9.193 0 0 1 1.678-3.422l.002-.001a9.293 9.293 0 0 1 2.863-2.433 9.363 9.363 0 0 1 1.875-.785l-.485-3.716-2.29 2.933a.102.102 0 0 1-.147.015L72.537 7.28a.101.101 0 0 1-.017-.146l3.222-4.129L78.056.041a.105.105 0 0 1 .148-.018l7.178 5.496a.108.108 0 0 1 .018.148l-.575.737-1.238 1.586a.106.106 0 0 1-.149.018l-2.953-2.262.49 3.724a9.477 9.477 0 0 1 5.354 1.955 9.34 9.34 0 0 1 3.13 4.271A9.273 9.273 0 0 1 89.944 20a9.428 9.428 0 0 1-.469 1.956c-.457 1.274-1.155 2.194-1.95 3.198"/>
  <path fill="red" d="M.126 33h24v2h-24v-2z"/>
  <path fill="#FF8400" d="M24.126 33h24v2h-24v-2z"/>
  <path fill="#FFF600" d="M48.126 33h24v2h-24v-2z"/>
  <path fill="#34E404" d="M72.133 33h4.001l1 2h-5.001v-2z"/>
  <path fill="#8B00ED" d="M123.15 33h24v2h-24v-2z"/>
  <path fill="#0459E4" d="M99.15 33h24v2h-24v-2z"/>
  <path fill="#34E404" d="M94.135 33h5.002v2h-5.002v-2z"/>
</svg>
