<svg id="Calque_1" xmlns="http://www.w3.org/2000/svg" viewBox="0 0 544 114"><style>.st0{fill:url(#SVGID_1_)}.st1{opacity:.21}.st2{fill:#312782}.st3{fill:#2ae1ff}.st4{fill:#ed1b84}</style><linearGradient id="SVGID_1_" gradientUnits="userSpaceOnUse" x1="233.406" y1="39.901" x2="539.349" y2="39.901"><stop offset="0" stop-color="#2ae1ff"/><stop offset=".156" stop-color="#27d8fd"/><stop offset=".41" stop-color="#1dbff6"/><stop offset=".73" stop-color="#0f98ec"/><stop offset=".999" stop-color="#0071e2"/></linearGradient><path class="st0" d="M283 24.2c0 19.7-26.4 22.9-29.9 33-.2.7.1 1.1.9 1.1h25.4c2 0 3 1 3 3v11.3c0 2-1 3-3 3h-42.9c-1.9 0-3-1.1-3-3V64c0-23.2 29.6-29.7 31.2-37.7.6-3-1-5.6-4.9-5.6-4.7 0-7 2.6-7.8 6.7-.3 2-1.3 2.9-3.3 2.5l-11.5-2.5c-1.8-.4-2.7-1.5-2.6-3.3.6-7.3 4.4-20.7 25.2-20.7 22.5 0 23.3 17.8 23.2 20.8zm56.3-20.8h-46.7c-.8 0-1.5.7-1.5 1.5v69.2c0 .7.6 1.6 1.5 1.6h18.5c.8 0 1.6-.7 1.6-1.5v-25h19.2c.9 0 1.7-.7 1.8-1.4l1.5-14.7c.1-.6-.4-1.4-1.4-1.4h-21.1v-9.5h26.6c.9 0 1.6-.6 1.6-1.6V4.8c0-.7-.6-1.4-1.6-1.4zm65.5 1.8V48c0 18.2-9.7 27.7-28.3 27.7-18.4 0-28.1-9.5-28.3-27.7V5.2c0-.9.8-1.7 1.7-1.7h22.9c0 1.8.1 3.5-.1 5.4-.3 2.6-.8 5.4-1.2 7.8l-1.2 6.4c-.4 1.9-.8 3.7-1.5 6.1l-1.5 5c1-.1 2.1-.1 3.2.2 2.1.4 4.4 1.1 6.8 2.2 2.4 1.1 4.9 2.6 6.5 4.1.4.3.6.7.9 1l.8-2.1c.9-2.3 1.9-5.2 2.9-8.2.9-3 1.7-6.1 2.5-9.6s1.6-7.5 2-10.9c.3-2.6.4-4.9.5-7.3h9.7c1-.2 1.7.7 1.7 1.6zm-21 42.3c.2-1.1-.1-2.1-.7-3-.3-.5-.8-1.1-1.4-1.6-1.5-1.4-3.8-2.8-6.1-3.9-2.2-1-4.4-1.7-6.4-2.1-1.1-.2-2.2-.3-3.1-.2-.7.1-1.3.4-1.8.8-1.3 1-2.1 3.1-2.6 5.6-.5 2.5-.7 5.4-.6 7.9.1 2.5.5 4.5 1 5.8.5 1.3 1.2 2 2 2.5.8.6 1.6 1.1 2.6 1.3 1.1.3 2.4.3 4.1-.2 1.7-.5 3.8-1.6 5.5-2.9 1.8-1.3 3.2-2.7 4.5-4.5 1.5-1.6 2.7-3.7 3-5.5zm155.3 26.9l-21.8-35.8 20.3-32.5c.4-.7.1-1.2-.7-1.2h-22.4c-.9 0-1.9.5-2.4 1.2l-12.3 23.3v-23c0-.8-.6-1.5-1.5-1.5h-18.1c-.7 0-1.4.7-1.4 1.5v67.7c0 .7.7 1.4 1.4 1.4h18.1c.9 0 1.5-.7 1.5-1.4V48.8l12.7 25.6c.4.7 1.4 1.2 2.2 1.2h23.8c.7 0 1.1-.5.6-1.2zm-89.6-50.7c4.3 0 7.9.7 11.6 2.8.8.4 1.5.1 1.9-.8l6.6-14c.3-.7-.1-1.4-.9-1.8-5.8-3.6-13.6-5.8-21.1-5.8-20.7 0-34.5 14.5-34.5 36.1s13.9 36.1 34.5 36.1c7.4 0 15.3-2.2 21.1-5.8.8-.4 1.2-1.1.9-1.8L463 54.8c-.4-.9-1.1-1.2-1.9-.8-3.7 2.1-7.3 2.8-11.6 2.8-9 0-15.1-6.6-15.1-16.6 0-9.8 6-16.5 15.1-16.5z"/><g class="st1"><path class="st2" d="M478.7 74.2c0 .7.7 1.4 1.4 1.4h18.1c.9 0 1.5-.7 1.5-1.4V48.8l12.7 25.6c.4.7 1.4 1.2 2.2 1.2h23.8c.8 0 1.2-.5.7-1.2l-20.3-33.2c-15.2-1.7-28.5-2.8-40.2-3.5v36.5zM461.1 54c-3.7 2.1-7.3 2.8-11.6 2.8-9 0-15.1-6.6-15.1-16.6 0-1 .1-1.9.2-2.8-10.7.6-17.6 1.7-21.5 2.5v.3c0 21.7 13.9 36.1 34.5 36.1 7.4 0 15.3-2.2 21.1-5.8.8-.4 1.2-1.1.9-1.8L463 54.8c-.4-.9-1.1-1.2-1.9-.8zm-84.6 21.7c18.6 0 28.3-9.5 28.3-27.7v-6c-7 1.9-14.1 3.7-21 5.3v.2c-.2 1.8-1.5 3.9-2.8 5.6-1.3 1.8-2.8 3.2-4.5 4.5-1.8 1.3-3.8 2.4-5.5 2.9-1.7.5-3 .5-4.1.2-1.1-.3-1.9-.8-2.6-1.3-.8-.6-1.4-1.2-2-2.5-.4-1-.7-2.6-.9-4.4-4.2.9-8.3 1.8-12.4 2.6 2.3 13.5 11.7 20.6 27.5 20.6zm-83.9-.1h18.5c.8 0 1.6-.7 1.6-1.5V61.8c-7.3 1.2-14.5 2.3-21.6 3.4v8.9c0 .7.7 1.5 1.5 1.5zm-56.2.1h42.9c2 0 3-1 3-3v-6.2c-17.2 2.4-33.6 4.3-48.9 5.7v.5c0 1.9 1.1 3 3 3z"/></g><path class="st3" d="M75.8 41.5c-.7 20-14.8 33.8-34.3 33.8C21 75.3 6.6 60.1 6.6 39.5c0-20.7 14.9-36 34.9-36 16.4 0 30.2 10.3 33.2 24.6h-3.4C68.3 15.6 56 6.7 41.5 6.7 23.2 6.7 9.8 20.5 9.8 39.4 9.8 58.6 22.9 72 41.5 72c16.9 0 29.2-11.1 30.9-27.4H38.1v-3.2h37.7zm47.4 12.6H84.7L76 74.4h-3.5l29.7-70h2.8l30.5 70H132l-8.8-20.3zM86 51h36L103.7 9.1 86 51zm64-4.3v27.7h-3.4V46.8L119.9 4.3h3.7l24.8 39.2 25-39.2h3.7L150 46.7zm25.7 7.1h3.3c0 11 8.5 18.2 21.2 18.2 11.6 0 19.8-6.7 19.8-16.5 0-11.1-9.8-13.2-20.3-15.6-10.9-2.4-22.5-5-22.5-18 0-11.2 8.9-18.5 22.5-18.5 13.2 0 21.8 7.7 21.8 19.5h-3.3c0-9.9-7.5-16.3-18.6-16.3-11.6 0-19.2 6-19.2 15.2 0 10.6 9.9 12.7 20.2 15 11.1 2.5 22.7 5.1 22.7 18.6 0 11.9-9.6 19.7-23.1 19.7-14.7.1-24.5-8.4-24.5-21.3z"/><path class="st4" d="M18.6 88.7c3.3 0 5.5 1.4 7.1 3.4l-1.8 1.1c-1.2-1.5-3.1-2.5-5.3-2.5-4 0-7.1 3.1-7.1 7.5s3.1 7.5 7.1 7.5c2.2 0 4-1.1 4.9-2V100h-6.3v-2h8.6v6.6c-1.7 1.9-4.2 3.2-7.2 3.2-5.2 0-9.5-3.8-9.5-9.5 0-5.8 4.2-9.6 9.5-9.6zm16.5.3h12.1v2h-9.8v6H47v2h-9.6v6.3h9.8v2H35.1V89zm25.7 2.1H55v-2h14v2h-5.8v16.4h-2.3V91.1zm21.3 0h-5.8v-2h14v2h-5.8v16.4h-2.3V91.1zM98.8 89h2.3v18.4h-2.3V89zm14.4 3.6v14.8h-2.3V89h2.3l10.6 14.5V89h2.3v18.4h-2.2l-10.7-14.8zm31.4-3.9c3.3 0 5.5 1.4 7.1 3.4l-1.8 1.1c-1.2-1.5-3.1-2.5-5.3-2.5-4 0-7.1 3.1-7.1 7.5s3.1 7.5 7.1 7.5c2.2 0 4-1.1 4.9-2V100h-6.3v-2h8.6v6.6c-1.7 1.9-4.2 3.2-7.2 3.2-5.2 0-9.5-3.8-9.5-9.5.1-5.8 4.3-9.6 9.5-9.6zm29.2.3h2.3v16.4h8.6v2h-10.8V89zm31.1 14.3h-9.3l-1.6 4.1h-2.5l7.4-18.4h2.8l7.4 18.4h-2.5l-1.7-4.1zm-8.6-2h8l-4-10.2-4 10.2zM217 89h2.3v18.4H217V89zm12.1 0h6.3c5.7 0 9.4 4 9.4 9.2 0 5.2-3.7 9.2-9.4 9.2h-6.3V89zm6.3 16.4c4.5 0 7.1-3.2 7.1-7.1 0-4-2.5-7.2-7.1-7.2h-4v14.3h4zm29.9-5.6h6.6v1.8h-6.6v-1.8zm32.3-8.7h-5.8v-2h14v2H300v16.4h-2.3V91.1zm29.7 7.9h-10.8v8.4h-2.3V89h2.3v7.9h10.8V89h2.3v18.4h-2.3V99zm12.1-10h12.1v2h-9.8v6h9.6v2h-9.6v6.3h9.8v2h-12.1V89zm33.9 0h12.1v2h-9.8v6h9.6v2h-9.6v6.3h9.8v2h-12.1V89zm32.8 14.3h-9.3l-1.6 4.1h-2.5L400 89h2.8l7.4 18.4h-2.5l-1.6-4.1zm-8.7-2h8l-4-10.2-4 10.2zm20.6 1.8c1.2 1.4 3.2 2.6 5.8 2.6 3.3 0 4.3-1.8 4.3-3.2 0-2.2-2.2-2.8-4.7-3.5-3-.8-6.2-1.6-6.2-5.2 0-3 2.7-5.1 6.3-5.1 2.8 0 5 .9 6.5 2.6l-1.4 1.7c-1.4-1.5-3.3-2.2-5.3-2.2-2.2 0-3.8 1.2-3.8 2.9 0 1.8 2.1 2.4 4.5 3 3 .8 6.4 1.7 6.4 5.6 0 2.7-1.8 5.4-6.8 5.4-3.2 0-5.5-1.2-7.1-2.9l1.5-1.7zm26.5-3.5L437.3 89h2.7l5.7 8.6 5.7-8.6h2.7l-7.2 10.6v7.8h-2.3v-7.8zm40.1-7l-4.1 14.8H478L472.8 89h2.5l4.1 15.3 4.2-15.3h1.9l4.2 15.3 4.1-15.3h2.5l-5.2 18.4h-2.5l-4-14.8zm30.2 10.7h-9.3l-1.6 4.1h-2.5l7.4-18.4h2.8l7.4 18.4h-2.5l-1.7-4.1zm-8.7-2h8l-4-10.2-4 10.2zm24.4-1.7L523.2 89h2.7l5.7 8.6 5.7-8.6h2.7l-7.2 10.6v7.8h-2.3v-7.8z"/></svg>